<svg width="21" height="20" viewBox="0 0 21 20" fill="none" xmlns="http://www.w3.org/2000/svg">
<g clip-path="url(#clip0_1_1406)">
<path d="M16.1847 13.9868H16.182C15.3973 13.9965 14.6481 14.3176 14.0966 14.8804C13.5451 15.4432 13.2358 16.2024 13.2358 16.9935C13.2358 17.7846 13.5451 18.5438 14.0966 19.1066C14.6481 19.6694 15.3973 19.9904 16.182 20.0001C16.9667 19.9908 17.7161 19.6701 18.2679 19.1075C18.8196 18.545 19.1292 17.7859 19.1296 16.9948C19.1299 16.2038 18.821 15.4444 18.2698 14.8813C17.7186 14.3183 16.9694 13.9969 16.1847 13.9868ZM16.9995 16.9933C16.9997 17.1012 16.9787 17.2081 16.9377 17.3079C16.8968 17.4076 16.8366 17.4982 16.7608 17.5744C16.6077 17.7283 16.4005 17.8149 16.1843 17.8155C16.0756 17.818 15.9675 17.7987 15.8663 17.7585C15.7651 17.7184 15.6729 17.6583 15.5952 17.5817C15.5174 17.5051 15.4556 17.4136 15.4134 17.3126C15.3712 17.2116 15.3495 17.1031 15.3495 16.9935C15.3495 16.8839 15.3712 16.7754 15.4134 16.6744C15.4556 16.5734 15.5174 16.4819 15.5952 16.4053C15.6729 16.3287 15.7651 16.2686 15.8663 16.2284C15.9675 16.1883 16.0756 16.1689 16.1843 16.1715C16.4004 16.1721 16.6075 16.2585 16.7608 16.4121C16.8366 16.4883 16.8968 16.5789 16.9377 16.6786C16.9787 16.7784 16.9997 16.8853 16.9995 16.9933Z" fill="#464646"/>
<path d="M20.7735 4.13487C20.6726 4.00241 20.5428 3.89517 20.3942 3.82151C20.2455 3.74784 20.082 3.70972 19.9164 3.71012H6.64237L6.22237 2.05115H6.21831C6.03568 1.45726 5.66918 0.937945 5.17251 0.569274C4.67584 0.200603 4.07511 0.00195823 3.45831 0.00244229H1.08222C0.795067 0.00244229 0.519675 0.117432 0.316628 0.322115C0.113581 0.526798 -0.000488281 0.804407 -0.000488281 1.09387C-0.000488281 1.38334 0.113581 1.66095 0.316628 1.86563C0.519675 2.07031 0.795067 2.1853 1.08222 2.1853H3.45515C3.61554 2.18482 3.77153 2.2382 3.89847 2.33702C4.02542 2.43584 4.11611 2.57447 4.1562 2.73102L6.27651 11.1532C6.43658 11.7784 6.79816 12.3323 7.30443 12.7278C7.81071 13.1233 8.43298 13.3381 9.0735 13.3384H16.541C17.1777 13.3385 17.7966 13.1265 18.3014 12.7354C18.8062 12.3442 19.1686 11.7958 19.3321 11.1755L20.9603 5.07805C21.0031 4.91694 21.0086 4.74804 20.9762 4.58446C20.9438 4.42088 20.8745 4.26703 20.7735 4.13487ZM17.2448 10.6007C17.2049 10.7566 17.1148 10.8947 16.9887 10.9934C16.8625 11.0922 16.7075 11.146 16.5478 11.1464H9.0771C8.91694 11.1466 8.76127 11.0931 8.6346 10.9943C8.50793 10.8955 8.41745 10.757 8.37741 10.6007L7.19274 5.88389H18.5048L17.2452 10.6007H17.2448Z" fill="#464646"/>
<path d="M8.78759 13.9863H8.77541C7.98676 13.99 7.23164 14.3083 6.67508 14.8715C6.11852 15.4348 5.80576 16.1972 5.80518 16.9922C5.80512 17.3871 5.88222 17.778 6.03208 18.1428C6.18194 18.5076 6.40162 18.8391 6.67858 19.1182C6.95553 19.3974 7.28433 19.6189 7.6462 19.7699C8.00807 19.921 8.39591 19.9987 8.78759 19.9987H8.79165C9.57634 19.9884 10.3254 19.6669 10.8765 19.1037C11.4276 18.5405 11.7364 17.7811 11.7358 16.99C11.7353 16.1989 11.4255 15.4399 10.8737 14.8775C10.3218 14.3151 9.57229 13.9945 8.78759 13.9854V13.9863ZM7.9724 16.9932C7.96985 16.8844 7.98891 16.7762 8.02845 16.6749C8.06798 16.5736 8.1272 16.4814 8.20263 16.4035C8.27805 16.3257 8.36816 16.2638 8.46765 16.2216C8.56714 16.1793 8.674 16.1576 8.78195 16.1576C8.8899 16.1576 8.99675 16.1793 9.09624 16.2216C9.19573 16.2638 9.28583 16.3257 9.36126 16.4035C9.43669 16.4814 9.49591 16.5736 9.53545 16.6749C9.57499 16.7762 9.59404 16.8844 9.59149 16.9932V17.1296C9.5576 17.3329 9.44916 17.5159 9.28767 17.6423C9.12619 17.7688 8.92345 17.8294 8.71968 17.8123C8.51591 17.7951 8.32598 17.7013 8.18756 17.5496C8.04914 17.3979 7.97234 17.1993 7.9724 16.9932Z" fill="#464646"/>
</g>
<defs>
<clipPath id="clip0_1_1406">
<rect width="21" height="20" fill="white"/>
</clipPath>
</defs>
</svg>
