<svg width="20" height="18" viewBox="0 0 20 18" fill="none" xmlns="http://www.w3.org/2000/svg">
<path fill-rule="evenodd" clip-rule="evenodd" d="M1.63166 9.59647C0.586773 8.54232 0 7.11756 0 5.63208C0 4.13836 0.592948 2.70538 1.64916 1.64917C2.70536 0.59296 4.13835 0 5.63207 0C7.12579 0 8.55878 0.59296 9.61499 1.64917L9.99999 2.03418L10.385 1.64917C11.4412 0.59296 12.8732 0 14.3669 0C15.8616 0 17.2936 0.59296 18.3498 1.64917C19.406 2.70538 20 4.13836 20 5.63208C20 7.11756 19.4132 8.54232 18.3673 9.59647L10.7268 17.6869C10.5384 17.8866 10.2749 17.9998 9.99999 17.9998C9.72513 17.9998 9.4616 17.8866 9.27321 17.6869L1.63166 9.59647ZM9.99999 15.5436L16.9158 8.22113L16.9364 8.20054C17.6168 7.51905 17.9998 6.59564 17.9998 5.63208C17.9998 4.66852 17.6168 3.74511 16.9364 3.06362C16.2549 2.38213 15.3305 1.99918 14.3669 1.99918C13.4044 1.99918 12.4799 2.38213 11.7984 3.06362L10.7072 4.15586C10.316 4.54602 9.68293 4.54602 9.29277 4.15586L8.20053 3.06362C7.52006 2.38213 6.59563 1.99918 5.63207 1.99918C4.66851 1.99918 3.74511 2.38213 3.06362 3.06362C2.38213 3.74511 2.0002 4.66852 2.0002 5.63208C2.0002 6.59564 2.38213 7.51905 3.06362 8.20054C3.07082 8.20775 3.077 8.21392 3.08317 8.22113L9.99999 15.5436Z" fill="#464646"/>
</svg>
